<svg width="100" height="100" viewBox="0 0 100 100" fill="none" xmlns="http://www.w3.org/2000/svg">
<circle cx="50" cy="50" r="50" fill="#DCE0E5"/>
<path d="M83.5906 77.9065C88.0785 72.5068 91.1999 66.1057 92.6907 59.2445C94.1814 52.3834 93.9978 45.2642 92.1553 38.489C90.3127 31.7139 86.8655 25.4822 82.1052 20.3211C77.3449 15.16 71.4115 11.2213 64.8071 8.83829C58.2026 6.45526 51.1214 5.69796 44.1624 6.63046C37.2034 7.56296 30.5713 10.1578 24.8272 14.1955C19.0832 18.2333 14.3961 23.595 11.1625 29.8273C7.92887 36.0596 6.24387 42.979 6.25002 50.0002C6.25238 60.2071 9.84922 70.087 16.4094 77.9065L16.3469 77.9596C16.5656 78.2221 16.8156 78.4471 17.0406 78.7065C17.3219 79.0283 17.625 79.3315 17.9156 79.644C18.7906 80.594 19.6906 81.5065 20.6344 82.3627C20.9219 82.6252 21.2188 82.869 21.5094 83.119C22.5094 83.9815 23.5375 84.8002 24.6031 85.5627C24.7406 85.6565 24.8656 85.7783 25.0031 85.8752V85.8377C32.3222 90.9882 41.0535 93.7525 50.0031 93.7525C58.9528 93.7525 67.6841 90.9882 75.0031 85.8377V85.8752C75.1406 85.7783 75.2625 85.6565 75.4031 85.5627C76.4656 84.7971 77.4969 83.9815 78.4969 83.119C78.7875 82.869 79.0844 82.6221 79.3719 82.3627C80.3156 81.5033 81.2156 80.594 82.0906 79.644C82.3813 79.3315 82.6813 79.0283 82.9656 78.7065C83.1875 78.4471 83.4406 78.2221 83.6594 77.9565L83.5906 77.9065ZM50 25.0002C52.7813 25.0002 55.5002 25.825 57.8127 27.3702C60.1253 28.9154 61.9277 31.1116 62.9921 33.6812C64.0564 36.2508 64.3349 39.0783 63.7923 41.8062C63.2497 44.534 61.9104 47.0397 59.9437 49.0064C57.977 50.9731 55.4713 52.3124 52.7435 52.855C50.0156 53.3976 47.1881 53.1191 44.6185 52.0548C42.0489 50.9904 39.8527 49.188 38.3075 46.8754C36.7623 44.5629 35.9375 41.844 35.9375 39.0627C35.9375 35.3331 37.4191 31.7563 40.0563 29.119C42.6936 26.4818 46.2704 25.0002 50 25.0002ZM25.0219 77.9065C25.0761 73.8032 26.7436 69.8863 29.6636 67.0031C32.5837 64.12 36.5214 62.5023 40.625 62.5002H59.375C63.4786 62.5023 67.4164 64.12 70.3364 67.0031C73.2564 69.8863 74.9239 73.8032 74.9781 77.9065C68.1245 84.0825 59.2258 87.5005 50 87.5005C40.7742 87.5005 31.8755 84.0825 25.0219 77.9065Z" fill="#F3F5F6"/>
</svg>
