<svg width="142" height="50" viewBox="0 0 142 50" fill="none" xmlns="http://www.w3.org/2000/svg">
<path fill-rule="evenodd" clip-rule="evenodd" d="M67.734 19.5169V23.4941H51.8868V20.3407L60.8044 9.71573H52.114V5.73846H67.3648V8.89187L58.4472 19.5169H67.734ZM137.399 49.9998L137.342 40.5964L132.798 48.2385H130.583L126.068 40.8237V49.9998H121.438V32.2441H125.556L131.776 42.4714L137.854 32.2441H141.972L142 49.9998H137.399ZM99.9396 31.9032H105.052V45.9373H113.657V49.9998H99.9396V31.9032ZM79.1792 31.9032H84.2912V49.9998H79.1792V31.9032ZM56.9704 35.8521V39.8294H64.9224V43.7782H56.9704V49.9998H51.8584V31.9032H66.0016V35.8521H56.9704ZM137.399 23.4941L137.342 14.0907L132.798 21.7328H130.583L126.068 14.318V23.4657H121.438V5.73846H125.556L131.776 15.9657L137.854 5.73846H141.972L142.028 23.4941H137.399ZM106.812 23.8351C104.938 23.8351 103.262 23.4373 101.757 22.6419C100.252 21.8464 99.0876 20.7385 98.2356 19.3464C97.3836 17.9544 96.9576 16.3635 96.9576 14.6021C96.9576 12.8407 97.3836 11.2782 98.2356 9.85778C99.0876 8.46573 100.252 7.35778 101.757 6.56232C103.234 5.76687 104.938 5.36914 106.812 5.36914C108.687 5.36914 110.362 5.76687 111.868 6.56232C113.373 7.35778 114.537 8.46573 115.389 9.85778C116.241 11.2498 116.667 12.8407 116.667 14.6021C116.667 16.3635 116.241 17.926 115.389 19.3464C114.537 20.7385 113.373 21.8464 111.868 22.6419C110.362 23.4373 108.658 23.8351 106.812 23.8351ZM106.812 19.6873C107.693 19.6873 108.516 19.4885 109.226 19.0623C109.965 18.6362 110.533 18.0396 110.959 17.2726C111.385 16.5055 111.584 15.6248 111.584 14.6305C111.584 13.6362 111.385 12.7555 110.959 11.9885C110.533 11.2214 109.965 10.6248 109.226 10.1987C108.488 9.77255 107.693 9.57369 106.812 9.57369C105.932 9.57369 105.108 9.77255 104.398 10.1987C103.66 10.6248 103.092 11.2214 102.666 11.9885C102.24 12.7555 102.041 13.6362 102.041 14.6305C102.041 15.6248 102.24 16.5055 102.666 17.2726C103.092 18.0396 103.66 18.6362 104.398 19.0623C105.108 19.4601 105.904 19.6873 106.812 19.6873ZM82.36 23.8351C80.4856 23.8351 78.81 23.4373 77.3048 22.6419C75.7996 21.8464 74.6352 20.7385 73.7832 19.3464C72.9312 17.9544 72.5052 16.3635 72.5052 14.6021C72.5052 12.8407 72.9312 11.2782 73.7832 9.85778C74.6352 8.46573 75.7996 7.35778 77.3048 6.56232C78.7816 5.76687 80.4856 5.36914 82.36 5.36914C84.2344 5.36914 85.91 5.76687 87.4152 6.56232C88.9204 7.35778 90.0848 8.46573 90.9368 9.85778C91.7888 11.2498 92.2148 12.8407 92.2148 14.6021C92.2148 16.3635 91.7888 17.926 90.9368 19.3464C90.0848 20.7385 88.9204 21.8464 87.4152 22.6419C85.91 23.4373 84.206 23.8351 82.36 23.8351ZM82.36 19.6873C83.2404 19.6873 84.064 19.4885 84.774 19.0623C85.5124 18.6362 86.0804 18.0396 86.5064 17.2726C86.9324 16.5055 87.1312 15.6248 87.1312 14.6305C87.1312 13.6362 86.9324 12.7555 86.5064 11.9885C86.0804 11.2214 85.5124 10.6248 84.774 10.1987C84.0356 9.77255 83.2404 9.57369 82.36 9.57369C81.4796 9.57369 80.656 9.77255 79.946 10.1987C79.2076 10.6248 78.6396 11.2214 78.2136 11.9885C77.7876 12.7555 77.5888 13.6362 77.5888 14.6305C77.5888 15.6248 77.7876 16.5055 78.2136 17.2726C78.6396 18.0396 79.2076 18.6362 79.946 19.0623C80.656 19.4601 81.4512 19.6873 82.36 19.6873Z" fill="white"/>
<path fill-rule="evenodd" clip-rule="evenodd" d="M0.227783 5.36914H4.14698L2.27258 8.15323H6.22018L8.09458 5.39755H12.1558L10.2814 8.15323H14.229L16.1034 5.39755H20.1646L18.2902 8.15323H22.2378L24.1122 5.39755H28.1734L26.299 8.15323H30.1898L32.0642 5.39755H36.1254L34.251 8.15323H36.6082V17.9828H10.9062V28.693H21.4994L10.9062 39.318V49.9998H0.227783C0.227783 35.1135 0.227783 20.2555 0.227783 5.36914ZM36.5798 39.2896V28.6646L25.9866 39.2896H36.5798Z" fill="#5D5FEF"/>
<path fill-rule="evenodd" clip-rule="evenodd" d="M0.2272 5.73864L4.1464 5.39773L2.0448 2.78409L0 2.98295L0.2272 5.73864ZM5.964 2.44318L8.094 5.02841L12.1268 4.6875L9.9968 2.10227L5.964 2.44318ZM13.9444 1.76136L16.0744 4.34659L20.0788 3.97727L17.9488 1.39205L13.9444 1.76136ZM21.8964 1.05114L24.0264 3.63636L28.0592 3.29545L25.9292 0.710227L21.8964 1.05114ZM29.82 0.340909L31.95 2.92614L35.9828 2.58523L33.8528 0L29.82 0.340909Z" fill="#5D5FEF"/>
</svg>
