<svg width="142" height="50" viewBox="0 0 142 50" fill="none" xmlns="http://www.w3.org/2000/svg">
<path fill-rule="evenodd" clip-rule="evenodd" d="M67.734 19.5171V23.4944H51.8868V20.341L60.8044 9.71598H52.114V5.7387H67.3648V8.89211L58.4472 19.5171H67.734ZM137.399 50.0001L137.342 40.5967L132.798 48.2387H130.583L126.068 40.8239V50.0001H121.438V32.2444H125.556L131.776 42.4717L137.854 32.2444H141.972L142 50.0001H137.399ZM99.9396 31.9035H105.052V45.9376H113.657V50.0001H99.9396V31.9035ZM79.1792 31.9035H84.2912V50.0001H79.1792V31.9035ZM56.9704 35.8523V39.8296H64.9224V43.7785H56.9704V50.0001H51.8584V31.9035H66.0016V35.8523H56.9704ZM137.399 23.4944L137.342 14.091L132.798 21.733H130.583L126.068 14.3182V23.466H121.438V5.7387H125.556L131.776 15.966L137.854 5.7387H141.972L142.028 23.4944H137.399ZM106.812 23.8353C104.938 23.8353 103.262 23.4376 101.757 22.6421C100.252 21.8467 99.0876 20.7387 98.2356 19.3467C97.3836 17.9546 96.9576 16.3637 96.9576 14.6023C96.9576 12.841 97.3836 11.2785 98.2356 9.85802C99.0876 8.46598 100.252 7.35802 101.757 6.56257C103.234 5.76711 104.938 5.36938 106.812 5.36938C108.687 5.36938 110.362 5.76711 111.868 6.56257C113.373 7.35802 114.537 8.46598 115.389 9.85802C116.241 11.2501 116.667 12.841 116.667 14.6023C116.667 16.3637 116.241 17.9262 115.389 19.3467C114.537 20.7387 113.373 21.8467 111.868 22.6421C110.362 23.4376 108.658 23.8353 106.812 23.8353ZM106.812 19.6876C107.693 19.6876 108.516 19.4887 109.226 19.0626C109.965 18.6364 110.533 18.0398 110.959 17.2728C111.385 16.5057 111.584 15.6251 111.584 14.6307C111.584 13.6364 111.385 12.7557 110.959 11.9887C110.533 11.2217 109.965 10.6251 109.226 10.1989C108.488 9.77279 107.693 9.57393 106.812 9.57393C105.932 9.57393 105.108 9.77279 104.398 10.1989C103.66 10.6251 103.092 11.2217 102.666 11.9887C102.24 12.7557 102.041 13.6364 102.041 14.6307C102.041 15.6251 102.24 16.5057 102.666 17.2728C103.092 18.0398 103.66 18.6364 104.398 19.0626C105.108 19.4603 105.904 19.6876 106.812 19.6876ZM82.36 23.8353C80.4856 23.8353 78.81 23.4376 77.3048 22.6421C75.7996 21.8467 74.6352 20.7387 73.7832 19.3467C72.9312 17.9546 72.5052 16.3637 72.5052 14.6023C72.5052 12.841 72.9312 11.2785 73.7832 9.85802C74.6352 8.46598 75.7996 7.35802 77.3048 6.56257C78.7816 5.76711 80.4856 5.36938 82.36 5.36938C84.2344 5.36938 85.91 5.76711 87.4152 6.56257C88.9204 7.35802 90.0848 8.46598 90.9368 9.85802C91.7888 11.2501 92.2148 12.841 92.2148 14.6023C92.2148 16.3637 91.7888 17.9262 90.9368 19.3467C90.0848 20.7387 88.9204 21.8467 87.4152 22.6421C85.91 23.4376 84.206 23.8353 82.36 23.8353ZM82.36 19.6876C83.2404 19.6876 84.064 19.4887 84.774 19.0626C85.5124 18.6364 86.0804 18.0398 86.5064 17.2728C86.9324 16.5057 87.1312 15.6251 87.1312 14.6307C87.1312 13.6364 86.9324 12.7557 86.5064 11.9887C86.0804 11.2217 85.5124 10.6251 84.774 10.1989C84.0356 9.77279 83.2404 9.57393 82.36 9.57393C81.4796 9.57393 80.656 9.77279 79.946 10.1989C79.2076 10.6251 78.6396 11.2217 78.2136 11.9887C77.7876 12.7557 77.5888 13.6364 77.5888 14.6307C77.5888 15.6251 77.7876 16.5057 78.2136 17.2728C78.6396 18.0398 79.2076 18.6364 79.946 19.0626C80.656 19.4603 81.4512 19.6876 82.36 19.6876Z" fill="#1C1D23"/>
<path fill-rule="evenodd" clip-rule="evenodd" d="M0.227783 5.36938H4.14698L2.27258 8.15348H6.22018L8.09458 5.39779H12.1558L10.2814 8.15348H14.229L16.1034 5.39779H20.1646L18.2902 8.15348H22.2378L24.1122 5.39779H28.1734L26.299 8.15348H30.1898L32.0642 5.39779H36.1254L34.251 8.15348H36.6082V17.983H10.9062V28.6933H21.4994L10.9062 39.3182V50.0001H0.227783C0.227783 35.1137 0.227783 20.2558 0.227783 5.36938ZM36.5798 39.2898V28.6648L25.9866 39.2898H36.5798Z" fill="#5D5FEF"/>
<path fill-rule="evenodd" clip-rule="evenodd" d="M0.2272 5.73864L4.1464 5.39773L2.0448 2.78409L0 2.98295L0.2272 5.73864ZM5.964 2.44318L8.094 5.02841L12.1268 4.6875L9.9968 2.10227L5.964 2.44318ZM13.9444 1.76136L16.0744 4.34659L20.0788 3.97727L17.9488 1.39205L13.9444 1.76136ZM21.8964 1.05114L24.0264 3.63636L28.0592 3.29545L25.9292 0.710227L21.8964 1.05114ZM29.82 0.340909L31.95 2.92614L35.9828 2.58523L33.8528 0L29.82 0.340909Z" fill="#5D5FEF"/>
</svg>
