<svg width="30" height="37" viewBox="0 0 30 37" fill="none" xmlns="http://www.w3.org/2000/svg">
<rect x="8.5564" y="13.104" width="21.3911" height="8.47913" fill="white"/>
<rect x="8.5564" y="28.521" width="21.3911" height="8.47913" fill="white"/>
<rect width="20.1279" height="8.25666" transform="matrix(0.768985 -0.639267 0.715548 0.698564 8.55151 28.5059)" fill="white"/>
<path fill-rule="evenodd" clip-rule="evenodd" d="M0.186523 3.97339H3.39826L1.86221 6.03361H5.09723L6.63328 3.99441H9.96138L8.42533 6.03361H11.6603L13.1964 3.99441H16.5245L14.9885 6.03361H18.2235L19.7595 3.99441H23.0876L21.5516 6.03361H24.74L26.2761 3.99441H29.6042L28.0681 6.03361H29.9998V13.3074H8.93735V21.233H17.6184L8.93735 29.0954V37H0.186523C0.186523 25.9841 0.186523 14.9893 0.186523 3.97339ZM29.9766 29.0744V21.212L21.2956 29.0744H29.9766Z" fill="#5D5FEF"/>
<path fill-rule="evenodd" clip-rule="evenodd" d="M0.186188 4.24657L3.39793 3.9943L1.67569 2.06022L0 2.20738L0.186188 4.24657ZM4.88743 1.80795L6.63294 3.72101L9.93778 3.46873L8.19227 1.55568L4.88743 1.80795ZM11.4273 1.3034L13.1728 3.21646L16.4544 2.94317L14.7088 1.03011L11.4273 1.3034ZM17.9439 0.777838L19.6894 2.6909L22.9942 2.43863L21.2487 0.525566L17.9439 0.777838ZM24.4372 0.252272L26.1827 2.16533L29.4875 1.91306L27.742 0L24.4372 0.252272Z" fill="#5D5FEF"/>
</svg>
