<svg width="24" height="24" viewBox="0 0 24 24" fill="none" xmlns="http://www.w3.org/2000/svg">
<path d="M20.5 10.9969V10.9998V19.9998C20.5 20.3976 20.342 20.7792 20.0607 21.0605C19.7794 21.3418 19.3978 21.4998 19 21.4998H5C4.60218 21.4998 4.22064 21.3418 3.93934 21.0605C3.65804 20.7792 3.5 20.3976 3.5 19.9998V11.001C3.50039 10.9352 3.51378 10.87 3.53942 10.8094C3.56517 10.7484 3.60275 10.6932 3.65 10.6469L3.65001 10.6469L3.65355 10.6434L11.6525 2.64442C11.6527 2.64427 11.6528 2.64411 11.653 2.64396C11.7466 2.55112 11.8731 2.49902 12.005 2.49902C12.1369 2.49902 12.2634 2.55113 12.357 2.64397C12.3572 2.64412 12.3573 2.64427 12.3575 2.64442L20.355 10.6419C20.3553 10.6422 20.3555 10.6424 20.3557 10.6427C20.4017 10.6892 20.4381 10.7444 20.4629 10.805C20.4878 10.8659 20.5004 10.9311 20.5 10.9969ZM21 19.9998V10.9998H3V19.9998C3 20.5303 3.21071 21.039 3.58579 21.414C3.96086 21.7891 4.46957 21.9998 5 21.9998H19C19.5304 21.9998 20.0391 21.7891 20.4142 21.414C20.7893 21.039 21 20.5303 21 19.9998ZM9.5 19.9998V20.4998H10H14H14.5V19.9998V14.9998V14.4998H14H10H9.5V14.9998V19.9998ZM4.64645 11.0563L4.5 11.2027V11.4098V19.9998V20.4998H5H8H8.5V19.9998V14.9998C8.5 14.602 8.65804 14.2205 8.93934 13.9392C9.22065 13.6579 9.60218 13.4998 10 13.4998H14C14.3978 13.4998 14.7794 13.6579 15.0607 13.9392C15.342 14.2205 15.5 14.602 15.5 14.9998V19.9998V20.4998H16H19H19.5V19.9998V11.4098V11.2027L19.3536 11.0563L12.3536 4.05626L12 3.70271L11.6464 4.05626L4.64645 11.0563Z" fill="white" stroke="#6A7A8C"/>
</svg>
