<svg width="24" height="24" viewBox="0 0 24 24" fill="none" xmlns="http://www.w3.org/2000/svg">
<path d="M6.51603 14.3225L5.02603 20.7745C4.97989 20.9699 4.99374 21.1746 5.06577 21.362C5.1378 21.5494 5.26467 21.7107 5.4298 21.8248C5.59492 21.939 5.79064 22.0007 5.99138 22.0019C6.19212 22.0031 6.38855 21.9437 6.55503 21.8315L12 18.2015L17.445 21.8315C17.6154 21.9446 17.8162 22.0028 18.0207 21.9983C18.2251 21.9939 18.4232 21.9269 18.5884 21.8064C18.7536 21.686 18.878 21.5178 18.9448 21.3246C19.0116 21.1313 19.0176 20.9223 18.962 20.7255L17.133 14.3255L21.669 10.2435C21.8143 10.1127 21.9181 9.94218 21.9674 9.75303C22.0168 9.56387 22.0097 9.3644 21.9469 9.17926C21.8841 8.99412 21.7685 8.83144 21.6142 8.71134C21.46 8.59124 21.2739 8.51899 21.079 8.50351L15.378 8.04951L12.911 2.58851C12.8324 2.41267 12.7045 2.26335 12.5428 2.15857C12.3812 2.0538 12.1927 1.99805 12 1.99805C11.8074 1.99805 11.6189 2.0538 11.4572 2.15857C11.2956 2.26335 11.1677 2.41267 11.089 2.58851L8.62203 8.04951L2.92103 8.50251C2.72948 8.51769 2.54636 8.58772 2.39358 8.70425C2.2408 8.82077 2.12482 8.97884 2.05952 9.15954C1.99422 9.34025 1.98236 9.53595 2.02537 9.72322C2.06838 9.91049 2.16443 10.0814 2.30203 10.2155L6.51603 14.3225ZM9.36903 9.99651C9.54752 9.98245 9.71895 9.92063 9.86533 9.81753C10.0117 9.71443 10.1277 9.57384 10.201 9.41051L12 5.42951L13.799 9.41051C13.8724 9.57384 13.9883 9.71443 14.1347 9.81753C14.2811 9.92063 14.4525 9.98245 14.631 9.99651L18.603 10.3115L15.332 13.2555C15.048 13.5115 14.935 13.9055 15.039 14.2735L16.292 18.6585L12.556 16.1675C12.392 16.0575 12.199 15.9987 12.0015 15.9987C11.804 15.9987 11.611 16.0575 11.447 16.1675L7.54303 18.7705L8.59303 14.2245C8.63153 14.0573 8.62636 13.883 8.57802 13.7184C8.52969 13.5538 8.43981 13.4044 8.31703 13.2845L5.27903 10.3225L9.36903 9.99651Z" fill="#6A7A8C"/>
</svg>
