<svg width="40" height="40" viewBox="0 0 40 40" fill="none" xmlns="http://www.w3.org/2000/svg">
<path d="M27.2738 10.9092H12.7283C11.7256 10.9092 10.9102 11.7342 10.9102 12.7488V23.7865C10.9102 24.801 11.7256 25.6261 12.7283 25.6261H15.4556V29.091L21.162 25.6261H27.2738C28.2765 25.6261 29.092 24.801 29.092 23.7865V12.7488C29.092 11.7342 28.2765 10.9092 27.2738 10.9092ZM27.2738 23.7865H20.6583L17.2738 25.8404V23.7865H12.7283V12.7488H27.2738V23.7865Z" fill="#5D5FEF"/>
<path d="M19.0906 21.8186H20.9087V19.0914H23.636V17.2732H20.9087V14.5459H19.0906V17.2732H16.3633V19.0914H19.0906V21.8186Z" fill="#5D5FEF"/>
</svg>
