<svg width="18" height="18" viewBox="0 0 18 18" fill="none" xmlns="http://www.w3.org/2000/svg">
<path d="M4.43035 10.9359L3.18868 16.3126C3.15023 16.4754 3.16177 16.646 3.2218 16.8022C3.28183 16.9583 3.38755 17.0927 3.52516 17.1878C3.66276 17.283 3.82586 17.3344 3.99314 17.3354C4.16042 17.3364 4.32412 17.2869 4.46285 17.1934L9.00035 14.1684L13.5378 17.1934C13.6798 17.2877 13.8472 17.3362 14.0175 17.3324C14.1879 17.3287 14.353 17.2729 14.4907 17.1725C14.6284 17.0721 14.732 16.932 14.7877 16.771C14.8433 16.6099 14.8483 16.4357 14.802 16.2717L13.2778 10.9384L17.0578 7.53675C17.1789 7.42774 17.2654 7.28563 17.3065 7.12801C17.3477 6.97038 17.3417 6.80415 17.2894 6.64987C17.2371 6.49559 17.1407 6.36002 17.0122 6.25994C16.8836 6.15985 16.7286 6.09964 16.5662 6.08675L11.8153 5.70842L9.75951 1.15758C9.69396 1.01105 9.5874 0.886613 9.45269 0.7993C9.31798 0.711987 9.16088 0.665527 9.00035 0.665527C8.83982 0.665527 8.68272 0.711987 8.54801 0.7993C8.4133 0.886613 8.30673 1.01105 8.24118 1.15758L6.18535 5.70842L1.43451 6.08592C1.27489 6.09856 1.1223 6.15693 0.994977 6.25403C0.867657 6.35113 0.771008 6.48285 0.716592 6.63344C0.662175 6.78403 0.652296 6.94711 0.688135 7.10317C0.723974 7.25923 0.804015 7.40166 0.918681 7.51342L4.43035 10.9359ZM6.80785 7.33092C6.95659 7.3192 7.09945 7.26768 7.22143 7.18176C7.34342 7.09584 7.44005 6.97869 7.50118 6.84258L9.00035 3.52508L10.4995 6.84258C10.5606 6.97869 10.6573 7.09584 10.7793 7.18176C10.9012 7.26768 11.0441 7.3192 11.1928 7.33092L14.5028 7.59342L11.777 10.0468C11.5403 10.2601 11.4462 10.5884 11.5328 10.8951L12.577 14.5492L9.46368 12.4734C9.32703 12.3817 9.16617 12.3327 9.0016 12.3327C8.83702 12.3327 8.67617 12.3817 8.53951 12.4734L5.28618 14.6426L6.16118 10.8542C6.19326 10.7149 6.18896 10.5697 6.14868 10.4325C6.1084 10.2953 6.0335 10.1708 5.93118 10.0709L3.39951 7.60258L6.80785 7.33092Z" fill="#5D5FEF"/>
</svg>
