<svg width="18" height="14" viewBox="0 0 18 14" fill="none" xmlns="http://www.w3.org/2000/svg">
<path d="M3.375 0.125C2.5462 0.125 1.75134 0.45424 1.16529 1.04029C0.57924 1.62634 0.25 2.4212 0.25 3.25V10.75C0.25 11.5788 0.57924 12.3737 1.16529 12.9597C1.75134 13.5458 2.5462 13.875 3.375 13.875H9.625C10.4538 13.875 11.2487 13.5458 11.8347 12.9597C12.4208 12.3737 12.75 11.5788 12.75 10.75V3.25C12.75 2.4212 12.4208 1.62634 11.8347 1.04029C11.2487 0.45424 10.4538 0.125 9.625 0.125H3.375ZM16.73 2.1375L14 4.36625V9.635L16.73 11.86C16.8217 11.9348 16.9329 11.982 17.0504 11.9962C17.1679 12.0103 17.2871 11.9908 17.394 11.9398C17.5008 11.8889 17.591 11.8086 17.6541 11.7084C17.7171 11.6082 17.7504 11.4921 17.75 11.3737V2.62375C17.7499 2.50557 17.7163 2.38985 17.653 2.29001C17.5898 2.19016 17.4996 2.11029 17.3928 2.05965C17.286 2.00901 17.1671 1.98968 17.0498 2.0039C16.9325 2.01812 16.8216 2.06531 16.73 2.14V2.1375Z" fill="#5D5FEF"/>
</svg>
