<svg width="33" height="32" viewBox="0 0 33 32" fill="none" xmlns="http://www.w3.org/2000/svg">
<g clip-path="url(#clip0_1304_4132)">
<path d="M16.2123 31.9062C24.9971 31.9062 32.1185 24.7848 32.1185 16C32.1185 7.21522 24.9971 0.09375 16.2123 0.09375C7.4275 0.09375 0.30603 7.21522 0.30603 16C0.30603 24.7848 7.4275 31.9062 16.2123 31.9062Z" fill="#1A508B"/>
<path d="M19.7468 6.09354C14.8978 6.06295 12.9803 8.57753 13.4995 15.4561L9.59265 15.4561V19.9814H13.4995V30.548C14.3954 30.7031 15.303 30.781 16.2123 30.781C16.9295 30.781 17.6459 30.7325 18.3566 30.6358V19.9814H21.9397L22.6017 15.4561H18.3508C18.2941 11.5568 17.8038 9.82997 22.8319 10.1929V6.37467C21.6973 6.19728 20.6698 6.09936 19.7468 6.09354Z" fill="white"/>
</g>
<defs>
<clipPath id="clip0_1304_4132">
<rect width="32" height="32" fill="white" transform="translate(0.21228)"/>
</clipPath>
</defs>
</svg>
