<svg width="24" height="24" viewBox="0 0 24 24" fill="#5D5FEF" xmlns="http://www.w3.org/2000/svg">
<path d="M15.753 8.00002C16.3461 8.00254 16.9232 7.80725 17.3929 7.44502C17.8625 7.0828 18.1981 6.57432 18.3463 6.00002L20.6663 6.00002C20.8432 6.00002 21.0127 5.92978 21.1377 5.80476C21.2628 5.67973 21.333 5.51016 21.333 5.33335C21.333 5.15654 21.2628 4.98697 21.1377 4.86195C21.0127 4.73692 20.8432 4.66669 20.6663 4.66669L18.3463 4.66669C18.2068 4.08393 17.875 3.56516 17.4045 3.19404C16.934 2.82293 16.3522 2.62109 15.753 2.62109C15.1538 2.62109 14.572 2.82293 14.1015 3.19404C13.631 3.56516 13.2992 4.08393 13.1597 4.66669L3.33301 4.66669C3.1562 4.66669 2.98663 4.73692 2.86161 4.86195C2.73658 4.98697 2.66635 5.15654 2.66635 5.33335C2.66635 5.51016 2.73658 5.67973 2.86161 5.80476C2.98663 5.92978 3.1562 6.00002 3.33301 6.00002L13.1597 6.00002C13.308 6.57432 13.6435 7.0828 14.1132 7.44502C14.5828 7.80724 15.1599 8.00254 15.753 8.00002ZM14.4197 5.33335C14.4197 5.06964 14.4979 4.81186 14.6444 4.59259C14.7909 4.37333 14.9991 4.20243 15.2428 4.10151C15.4864 4.0006 15.7545 3.97419 16.0131 4.02564C16.2718 4.07709 16.5093 4.20407 16.6958 4.39054C16.8823 4.57701 17.0093 4.81459 17.0607 5.07323C17.1122 5.33187 17.0858 5.59996 16.9848 5.8436C16.8839 6.08723 16.713 6.29547 16.4938 6.44198C16.2745 6.58849 16.0167 6.66669 15.753 6.66669C15.5762 6.66934 15.4007 6.63681 15.2366 6.57099C15.0725 6.50517 14.9232 6.40738 14.7972 6.2833C14.6713 6.15923 14.5713 6.01134 14.503 5.84826C14.4348 5.68517 14.3997 5.51014 14.3997 5.33335L14.4197 5.33335Z" fill="#5D5FEF"/>
<path d="M13.4463 21.3333C14.0395 21.3358 14.6165 21.1405 15.0862 20.7783C15.5559 20.416 15.8914 19.9076 16.0397 19.3333L20.6663 19.3333C20.8432 19.3333 21.0127 19.263 21.1377 19.138C21.2628 19.013 21.333 18.8434 21.333 18.6666C21.333 18.4898 21.2628 18.3202 21.1377 18.1952C21.0127 18.0702 20.8432 17.9999 20.6663 17.9999L16.0397 17.9999C15.9001 17.4172 15.5683 16.8984 15.0978 16.5273C14.6274 16.1562 14.0456 15.9543 13.4463 15.9543C12.8471 15.9543 12.2653 16.1562 11.7948 16.5273C11.3244 16.8984 10.9926 17.4172 10.853 17.9999L3.33301 17.9999C3.1562 17.9999 2.98663 18.0702 2.86161 18.1952C2.73658 18.3202 2.66635 18.4898 2.66635 18.6666C2.66635 18.8434 2.73658 19.013 2.86161 19.138C2.98663 19.263 3.1562 19.3333 3.33301 19.3333L10.853 19.3333C11.0013 19.9076 11.3368 20.416 11.8065 20.7783C12.2762 21.1405 12.8532 21.3358 13.4463 21.3333ZM12.113 18.6666C12.113 18.4029 12.1912 18.1451 12.3377 17.9258C12.4842 17.7066 12.6925 17.5357 12.9361 17.4348C13.1797 17.3338 13.4478 17.3074 13.7065 17.3589C13.9651 17.4103 14.2027 17.5373 14.3892 17.7238C14.5756 17.9103 14.7026 18.1478 14.7541 18.4065C14.8055 18.6651 14.7791 18.9332 14.6782 19.1768C14.5773 19.4205 14.4064 19.6287 14.1871 19.7752C13.9678 19.9217 13.7101 19.9999 13.4463 19.9999C13.269 20.0035 13.0928 19.9716 12.9279 19.9062C12.763 19.8408 12.6129 19.7431 12.4862 19.619C12.3596 19.4948 12.259 19.3466 12.1903 19.1831C12.1217 19.0196 12.0863 18.844 12.0863 18.6666L12.113 18.6666Z" fill="#5D5FEF"/>
<path d="M7.66634 14.6666C8.25947 14.6692 8.83652 14.4739 9.3062 14.1116C9.77588 13.7494 10.1114 13.2409 10.2597 12.6666L20.6663 12.6666C20.8432 12.6666 21.0127 12.5964 21.1377 12.4714C21.2628 12.3464 21.333 12.1768 21.333 12C21.333 11.8232 21.2628 11.6536 21.1377 11.5286C21.0127 11.4035 20.8432 11.3333 20.6663 11.3333L10.2597 11.3333C10.1201 10.7506 9.78833 10.2318 9.31784 9.86067C8.84736 9.48955 8.26558 9.28772 7.66634 9.28772C7.06711 9.28772 6.48533 9.48955 6.01484 9.86067C5.54436 10.2318 5.21258 10.7506 5.07301 11.3333L3.33301 11.3333C3.1562 11.3333 2.98663 11.4035 2.86161 11.5286C2.73658 11.6536 2.66635 11.8232 2.66635 12C2.66635 12.1768 2.73658 12.3464 2.86161 12.4714C2.98663 12.5964 3.1562 12.6666 3.33301 12.6666L5.07301 12.6666C5.22129 13.2409 5.55681 13.7494 6.02649 14.1116C6.49617 14.4739 7.07321 14.6692 7.66634 14.6666ZM6.33301 12C6.33301 11.7363 6.41121 11.4785 6.55772 11.2592C6.70423 11.04 6.91247 10.8691 7.1561 10.7681C7.39973 10.6672 7.66782 10.6408 7.92646 10.6923C8.18511 10.7437 8.42268 10.8707 8.60915 11.0572C8.79562 11.2436 8.92261 11.4812 8.97406 11.7399C9.0255 11.9985 8.9991 12.2666 8.89818 12.5102C8.79727 12.7539 8.62637 12.9621 8.40711 13.1086C8.18784 13.2551 7.93005 13.3333 7.66634 13.3333C7.48957 13.336 7.31404 13.3034 7.14996 13.2376C6.98587 13.1718 6.83652 13.074 6.71058 12.9499C6.58464 12.8259 6.48464 12.678 6.41638 12.5149C6.34813 12.3518 6.31299 12.1768 6.31301 12L6.33301 12Z" fill="#5D5FEF"/>
</svg>
