<svg width="18" height="20" viewBox="0 0 18 20" fill="none" xmlns="http://www.w3.org/2000/svg">
<path d="M17.5 8.99692V8.99982V17.9998C17.5 18.3976 17.342 18.7792 17.0607 19.0605C16.7794 19.3418 16.3978 19.4998 16 19.4998H2C1.60218 19.4998 1.22064 19.3418 0.93934 19.0605C0.658035 18.7792 0.5 18.3976 0.5 17.9998V9.00103C0.500387 8.93517 0.513782 8.87003 0.539419 8.80936C0.565167 8.74842 0.602751 8.6932 0.649997 8.64689L0.650014 8.64691L0.653553 8.64337L8.6525 0.64442C8.65265 0.644267 8.65281 0.644114 8.65296 0.643961C8.7466 0.551122 8.87313 0.499023 9.005 0.499023C9.13688 0.499023 9.26341 0.551125 9.35705 0.643968C9.3572 0.644119 9.35735 0.644269 9.3575 0.64442L17.355 8.64193C17.3553 8.64217 17.3555 8.64242 17.3557 8.64267C17.4017 8.68924 17.4381 8.74438 17.4629 8.80497C17.4878 8.86589 17.5004 8.93112 17.5 8.99692ZM18 17.9998V8.99982H0V17.9998C0 18.5303 0.210714 19.039 0.585786 19.414C0.960859 19.7891 1.46957 19.9998 2 19.9998H16C16.5304 19.9998 17.0391 19.7891 17.4142 19.414C17.7893 19.039 18 18.5303 18 17.9998ZM6.5 17.9998V18.4998H7H11H11.5V17.9998V12.9998V12.4998H11H7H6.5V12.9998V17.9998ZM1.64645 9.05626L1.5 9.20271V9.40982V17.9998V18.4998H2H5H5.5V17.9998V12.9998C5.5 12.602 5.65804 12.2205 5.93934 11.9392C6.22065 11.6579 6.60218 11.4998 7 11.4998H11C11.3978 11.4998 11.7794 11.6579 12.0607 11.9392C12.342 12.2205 12.5 12.602 12.5 12.9998V17.9998V18.4998H13H16H16.5V17.9998V9.40982V9.20271L16.3536 9.05626L9.35355 2.05626L9 1.70271L8.64645 2.05626L1.64645 9.05626Z" fill="white" stroke="#6A7A8C"/>
</svg>
