<svg width="32" height="32" viewBox="0 0 32 32" fill="none" xmlns="http://www.w3.org/2000/svg">
<path d="M0 5C0 2.23858 2.23858 0 5 0H27C29.7614 0 32 2.23858 32 5V27C32 29.7614 29.7614 32 27 32H5C2.23858 32 0 29.7614 0 27V5Z" fill="white"/>
<path d="M8 10H10V12H8V10ZM8 15H10V17H8V15ZM8 20H10V22H8V20ZM24 12V10H12.023V12H22.8H24ZM12 15H24V17H12V15ZM12 20H24V22H12V20Z" fill="#5D5FEF"/>
<path d="M5 2H27V-2H5V2ZM30 5V27H34V5H30ZM27 30H5V34H27V30ZM2 27V5H-2V27H2ZM5 30C3.34315 30 2 28.6569 2 27H-2C-2 30.866 1.13401 34 5 34V30ZM30 27C30 28.6569 28.6569 30 27 30V34C30.866 34 34 30.866 34 27H30ZM27 2C28.6569 2 30 3.34315 30 5H34C34 1.13401 30.866 -2 27 -2V2ZM5 -2C1.13401 -2 -2 1.13401 -2 5H2C2 3.34315 3.34315 2 5 2V-2Z" fill="#5D5FEF"/>
</svg>
