<svg width="41" height="40" viewBox="0 0 41 40" fill="none" xmlns="http://www.w3.org/2000/svg">
<g clip-path="url(#clip0_2201_9117)">
<circle cx="20.5" cy="20" r="20" fill="#F1F1FC"/>
<path d="M14.875 13.125C14.0462 13.125 13.2513 13.4542 12.6653 14.0403C12.0792 14.6263 11.75 15.4212 11.75 16.25V23.75C11.75 24.5788 12.0792 25.3737 12.6653 25.9597C13.2513 26.5458 14.0462 26.875 14.875 26.875H21.125C21.9538 26.875 22.7487 26.5458 23.3347 25.9597C23.9208 25.3737 24.25 24.5788 24.25 23.75V16.25C24.25 15.4212 23.9208 14.6263 23.3347 14.0403C22.7487 13.4542 21.9538 13.125 21.125 13.125H14.875ZM28.23 15.1375L25.5 17.3663V22.635L28.23 24.86C28.3217 24.9348 28.4329 24.982 28.5504 24.9962C28.6679 25.0103 28.7871 24.9908 28.894 24.9398C29.0008 24.8889 29.091 24.8086 29.1541 24.7084C29.2171 24.6082 29.2504 24.4921 29.25 24.3737V15.6238C29.2499 15.5056 29.2163 15.3899 29.153 15.29C29.0898 15.1902 28.9996 15.1103 28.8928 15.0596C28.786 15.009 28.6671 14.9897 28.5498 15.0039C28.4325 15.0181 28.3216 15.0653 28.23 15.14V15.1375Z" fill="#5D5FEF"/>
</g>
<defs>
<clipPath id="clip0_2201_9117">
<rect width="40" height="40" fill="white" transform="translate(0.5)"/>
</clipPath>
</defs>
</svg>
