<svg width="100" height="100" viewBox="0 0 100 100" fill="none" xmlns="http://www.w3.org/2000/svg">
<rect width="100" height="100" rx="20" fill="white"/>
<path d="M54 64.3334H46C38.76 64.3334 35.6667 61.2401 35.6667 54.0001V46.0001C35.6667 38.7601 38.76 35.6667 46 35.6667H54C61.24 35.6667 64.3334 38.7601 64.3334 46.0001V54.0001C64.3334 61.2401 61.24 64.3334 54 64.3334ZM46 37.6667C39.8534 37.6667 37.6667 39.8534 37.6667 46.0001V54.0001C37.6667 60.1467 39.8534 62.3334 46 62.3334H54C60.1467 62.3334 62.3334 60.1467 62.3334 54.0001V46.0001C62.3334 39.8534 60.1467 37.6667 54 37.6667H46Z" fill="#5D5FEF"/>
<path d="M62.64 44.48H37.36C36.8133 44.48 36.36 44.0266 36.36 43.48C36.36 42.9333 36.8 42.48 37.36 42.48H62.64C63.1867 42.48 63.64 42.9333 63.64 43.48C63.64 44.0266 63.2 44.48 62.64 44.48Z" fill="#5D5FEF"/>
<path d="M45.36 44.2932C44.8133 44.2932 44.36 43.8399 44.36 43.2932V36.8132C44.36 36.2666 44.8133 35.8132 45.36 35.8132C45.9067 35.8132 46.36 36.2666 46.36 36.8132V43.2932C46.36 43.8399 45.9067 44.2932 45.36 44.2932Z" fill="#5D5FEF"/>
<path d="M54.64 43.6932C54.0933 43.6932 53.64 43.2399 53.64 42.6932V36.8132C53.64 36.2666 54.0933 35.8132 54.64 35.8132C55.1867 35.8132 55.64 36.2666 55.64 36.8132V42.6932C55.64 43.2532 55.2 43.6932 54.64 43.6932Z" fill="#5D5FEF"/>
<path d="M48.7867 58.1599C48.3067 58.1599 47.8533 58.0399 47.44 57.8133C46.5333 57.2799 46 56.2133 46 54.8666V51.6666C46 50.3199 46.5333 49.2399 47.4533 48.7066C48.3733 48.1733 49.5733 48.2533 50.7333 48.9333L53.5067 50.5333C54.6667 51.1999 55.3467 52.1999 55.3467 53.2666C55.3467 54.3333 54.6667 55.3333 53.4933 55.9999L50.72 57.5999C50.08 57.9733 49.4133 58.1599 48.7867 58.1599ZM48.8 50.3599C48.6667 50.3599 48.5467 50.3866 48.4533 50.4399C48.1733 50.5999 48 51.0533 48 51.6666V54.8666C48 55.4666 48.1733 55.9199 48.4533 56.0933C48.7333 56.2533 49.2133 56.1733 49.7333 55.8666L52.5067 54.2666C53.0267 53.9599 53.3467 53.5866 53.3467 53.2666C53.3467 52.9466 53.04 52.5733 52.5067 52.2666L49.7333 50.6666C49.3867 50.4666 49.0533 50.3599 48.8 50.3599Z" fill="#5D5FEF"/>
</svg>
