<svg width="20" height="20" viewBox="0 0 20 20" fill="none" xmlns="http://www.w3.org/2000/svg">
<path d="M13.3346 4.99967V14.583C13.3346 16.4247 11.843 17.9163 10.0013 17.9163C8.15964 17.9163 6.66797 16.4247 6.66797 14.583V4.16634C6.66797 3.01634 7.6013 2.08301 8.7513 2.08301C9.9013 2.08301 10.8346 3.01634 10.8346 4.16634V12.9163C10.8346 13.3747 10.4596 13.7497 10.0013 13.7497C9.54297 13.7497 9.16797 13.3747 9.16797 12.9163V4.99967H7.91797V12.9163C7.91797 14.0663 8.8513 14.9997 10.0013 14.9997C11.1513 14.9997 12.0846 14.0663 12.0846 12.9163V4.16634C12.0846 2.32467 10.593 0.833008 8.7513 0.833008C6.90964 0.833008 5.41797 2.32467 5.41797 4.16634V14.583C5.41797 17.1163 7.46797 19.1663 10.0013 19.1663C12.5346 19.1663 14.5846 17.1163 14.5846 14.583V4.99967H13.3346Z" fill="#5D5FEF"/>
</svg>
