<svg width="17" height="16" viewBox="0 0 17 16" fill="none" xmlns="http://www.w3.org/2000/svg">
<path d="M15.8556 7.24567L1.68895 0.579001C1.54631 0.511514 1.38743 0.485957 1.23082 0.505307C1.07421 0.524657 0.926332 0.588118 0.804409 0.688294C0.682487 0.78847 0.591546 0.921234 0.542186 1.07111C0.492826 1.22099 0.487079 1.38181 0.525616 1.53483L2.14145 7.99983L0.525616 14.4648C0.486719 14.6179 0.492214 14.7789 0.541459 14.929C0.590705 15.079 0.681664 15.212 0.803697 15.3122C0.92573 15.4125 1.07379 15.476 1.23056 15.4952C1.38733 15.5144 1.54633 15.4885 1.68895 15.4207L15.8556 8.754C15.9988 8.6867 16.1198 8.58005 16.2046 8.4465C16.2894 8.31295 16.3344 8.15803 16.3344 7.99983C16.3344 7.84164 16.2894 7.68672 16.2046 7.55317C16.1198 7.41962 15.9988 7.31296 15.8556 7.24567ZM2.56812 13.164L3.26728 10.3665L8.00062 7.99983L3.26728 5.63317L2.56812 2.83567L13.5431 7.99983L2.56812 13.164Z" fill="#5D5FEF"/>
</svg>
