<svg width="40" height="40" viewBox="0 0 40 40" fill="none" xmlns="http://www.w3.org/2000/svg">
<rect width="40" height="40" rx="5" fill="#F3F5F6"/>
<path d="M14.516 22.323L13.026 28.775C12.9799 28.9704 12.9937 29.1751 13.0657 29.3625C13.1378 29.5499 13.2646 29.7112 13.4298 29.8253C13.5949 29.9395 13.7906 30.0012 13.9914 30.0024C14.1921 30.0036 14.3885 29.9442 14.555 29.832L20 26.202L25.445 29.832C25.6153 29.9451 25.8162 30.0033 26.0206 29.9988C26.225 29.9944 26.4232 29.9274 26.5884 29.8069C26.7536 29.6865 26.878 29.5183 26.9448 29.3251C27.0116 29.1318 27.0176 28.9228 26.962 28.726L25.133 22.326L29.669 18.244C29.8143 18.1132 29.918 17.9427 29.9674 17.7535C30.0168 17.5644 30.0097 17.3649 29.9469 17.1797C29.8841 16.9946 29.7685 16.8319 29.6142 16.7118C29.46 16.5917 29.2739 16.5195 29.079 16.504L23.378 16.05L20.911 10.589C20.8323 10.4132 20.7045 10.2638 20.5428 10.1591C20.3812 10.0543 20.1926 9.99854 20 9.99854C19.8074 9.99854 19.6188 10.0543 19.4572 10.1591C19.2955 10.2638 19.1677 10.4132 19.089 10.589L16.622 16.05L10.921 16.503C10.7295 16.5182 10.5463 16.5882 10.3936 16.7047C10.2408 16.8213 10.1248 16.9793 10.0595 17.16C9.9942 17.3407 9.98234 17.5364 10.0253 17.7237C10.0684 17.911 10.1644 18.0819 10.302 18.216L14.516 22.323ZM17.369 17.997C17.5475 17.9829 17.7189 17.9211 17.8653 17.818C18.0117 17.7149 18.1276 17.5743 18.201 17.411L20 13.43L21.799 17.411C21.8724 17.5743 21.9883 17.7149 22.1347 17.818C22.2811 17.9211 22.4525 17.9829 22.631 17.997L26.603 18.312L23.332 21.256C23.048 21.512 22.935 21.906 23.039 22.274L24.292 26.659L20.556 24.168C20.392 24.0579 20.199 23.9992 20.0015 23.9992C19.804 23.9992 19.611 24.0579 19.447 24.168L15.543 26.771L16.593 22.225C16.6315 22.0578 16.6263 21.8835 16.578 21.7189C16.5297 21.5543 16.4398 21.4048 16.317 21.285L13.279 18.323L17.369 17.997Z" fill="#6A7A8C"/>
</svg>
