<svg width="33" height="32" viewBox="0 0 33 32" fill="none" xmlns="http://www.w3.org/2000/svg">
<g clip-path="url(#clip0_1304_4125)">
<path d="M16.2123 31.875C24.9798 31.875 32.0873 24.7675 32.0873 16C32.0873 7.23248 24.9798 0.125 16.2123 0.125C7.44476 0.125 0.33728 7.23248 0.33728 16C0.33728 24.7675 7.44476 31.875 16.2123 31.875Z" fill="#2298D5"/>
<path d="M23.4111 24.357C23.4111 24.357 27.6056 7.58745 26.6954 7.12825C25.7853 6.66904 5.96501 14.7422 5.96501 14.7422C3.88817 15.7225 11.2352 17.5285 11.2352 17.5285L23.4019 9.95184L14.1219 18.8562C14.1219 18.8562 22.7066 26.9881 23.4111 24.357Z" fill="white"/>
<path d="M14.1225 18.8516C14.1225 18.8516 13.2703 23.7142 13.7324 24.2098L16.8343 21.2505C15.3089 19.9748 14.1225 18.8516 14.1225 18.8516Z" fill="#B3B3B3"/>
<path d="M23.4022 9.95312L11.2357 17.5298C11.2357 17.5298 12.6173 23.5329 13.7322 24.2157C13.2701 23.7201 14.1222 18.8574 14.1222 18.8574L23.4022 9.95312Z" fill="#E6E6E6"/>
</g>
<defs>
<clipPath id="clip0_1304_4125">
<rect width="32" height="32" fill="white" transform="translate(0.21228)"/>
</clipPath>
</defs>
</svg>
