<svg width="18" height="21" viewBox="0 0 18 21" fill="none" xmlns="http://www.w3.org/2000/svg">
<path d="M16.8911 8.105C16.675 7.59567 16.4108 7.10813 16.1021 6.649L14.4441 7.768C14.922 8.47833 15.2572 9.27476 15.4311 10.113C15.6084 10.9868 15.6084 11.8872 15.4311 12.761C15.3443 13.1831 15.2156 13.5954 15.0471 13.992C14.8833 14.3817 14.6813 14.7541 14.4441 15.104C13.9701 15.803 13.3674 16.4054 12.6681 16.879C11.9584 17.3566 11.1627 17.6918 10.3251 17.866C9.45181 18.041 8.55245 18.041 7.67913 17.866C6.42219 17.6078 5.26879 16.986 4.36213 16.078C3.76323 15.4787 3.2852 14.7699 2.95413 13.99C2.78708 13.5934 2.65914 13.1815 2.57213 12.76C2.30815 11.4586 2.44123 10.1079 2.95413 8.883C3.28393 8.10328 3.76175 7.39489 4.36113 6.797C4.96025 6.19911 5.66834 5.7215 6.44713 5.39C6.84213 5.223 7.25713 5.094 7.67713 5.008C7.78413 4.986 7.89313 4.976 8.00113 4.959V8L13.0011 4L8.00113 0V2.938C7.75803 2.96491 7.51615 3.00195 7.27613 3.049C6.18028 3.27356 5.13945 3.71191 4.21313 4.339C2.56762 5.44902 1.35866 7.09605 0.792872 8.99862C0.227082 10.9012 0.339576 12.9412 1.11113 14.77C1.54067 15.7882 2.16388 16.7134 2.94613 17.494C3.72732 18.2737 4.65108 18.896 5.66713 19.327C7.26447 20.0028 9.02957 20.1768 10.7281 19.826C12.0878 19.545 13.3589 18.9381 14.4322 18.0574C15.5055 17.1767 16.349 16.0486 16.8901 14.77C17.1101 14.25 17.2791 13.709 17.3901 13.162C17.622 12.0237 17.622 10.8503 17.3901 9.712C17.2762 9.16144 17.1091 8.62325 16.8911 8.105Z" fill="#A2ADB9"/>
</svg>
