<svg width="18" height="19" viewBox="0 0 18 19" fill="none" xmlns="http://www.w3.org/2000/svg">
<path d="M6.49993 1.25839C7.23995 0.76392 8.10998 0.5 9 0.5C10.1935 0.5 11.3381 0.974106 12.182 1.81802C13.0259 2.66193 13.5 3.80653 13.5 5C13.5 5.89002 13.2361 6.76005 12.7416 7.50007C12.2471 8.24009 11.5443 8.81686 10.7221 9.15746C9.89981 9.49805 8.99501 9.58717 8.12209 9.41353C7.24918 9.2399 6.44736 8.81132 5.81802 8.18198C5.18868 7.55264 4.7601 6.75082 4.58647 5.87791C4.41283 5.00499 4.50195 4.10019 4.84254 3.27792C5.18314 2.45566 5.75991 1.75285 6.49993 1.25839ZM7.0555 7.91014C7.63108 8.29473 8.30777 8.5 9 8.5C9.92826 8.5 10.8185 8.13125 11.4749 7.47487C12.1313 6.8185 12.5 5.92826 12.5 5C12.5 4.30777 12.2947 3.63108 11.9101 3.0555C11.5256 2.47993 10.9789 2.03133 10.3394 1.76642C9.69985 1.50152 8.99612 1.4322 8.31718 1.56725C7.63825 1.7023 7.01461 2.03564 6.52513 2.52513C6.03564 3.01461 5.7023 3.63825 5.56725 4.31718C5.4322 4.99612 5.50151 5.69985 5.76642 6.33939C6.03133 6.97893 6.47993 7.52556 7.0555 7.91014ZM17.5 18V18.5H16.5V18C16.5 16.5413 15.9205 15.1424 14.8891 14.1109C13.8576 13.0795 12.4587 12.5 11 12.5H7C5.54131 12.5 4.14236 13.0795 3.11091 14.1109C2.07946 15.1424 1.5 16.5413 1.5 18V18.5H0.5V18C0.5 16.2761 1.18482 14.6228 2.40381 13.4038C3.62279 12.1848 5.27609 11.5 7 11.5H11C12.7239 11.5 14.3772 12.1848 15.5962 13.4038C16.8152 14.6228 17.5 16.2761 17.5 18Z" fill="white" stroke="#6A7A8C"/>
</svg>
