<svg width="32" height="32" viewBox="0 0 32 32" fill="none" xmlns="http://www.w3.org/2000/svg">
<path d="M20 30.3334H12C4.76002 30.3334 1.66669 27.2401 1.66669 20.0001V12.0001C1.66669 4.76008 4.76002 1.66675 12 1.66675H20C27.24 1.66675 30.3334 4.76008 30.3334 12.0001V20.0001C30.3334 27.2401 27.24 30.3334 20 30.3334ZM12 3.66675C5.85335 3.66675 3.66669 5.85341 3.66669 12.0001V20.0001C3.66669 26.1467 5.85335 28.3334 12 28.3334H20C26.1467 28.3334 28.3334 26.1467 28.3334 20.0001V12.0001C28.3334 5.85341 26.1467 3.66675 20 3.66675H12Z" fill="#5D5FEF"/>
<path d="M28.64 10.48H3.35999C2.81332 10.48 2.35999 10.0266 2.35999 9.47998C2.35999 8.93331 2.79999 8.47998 3.35999 8.47998H28.64C29.1867 8.47998 29.64 8.93331 29.64 9.47998C29.64 10.0266 29.2 10.48 28.64 10.48Z" fill="#5D5FEF"/>
<path d="M11.36 10.2932C10.8133 10.2932 10.36 9.8399 10.36 9.29323V2.81323C10.36 2.26657 10.8133 1.81323 11.36 1.81323C11.9067 1.81323 12.36 2.26657 12.36 2.81323V9.29323C12.36 9.8399 11.9067 10.2932 11.36 10.2932Z" fill="#5D5FEF"/>
<path d="M20.64 9.69323C20.0933 9.69323 19.64 9.2399 19.64 8.69323V2.81323C19.64 2.26657 20.0933 1.81323 20.64 1.81323C21.1867 1.81323 21.64 2.26657 21.64 2.81323V8.69323C21.64 9.25323 21.2 9.69323 20.64 9.69323Z" fill="#5D5FEF"/>
<path d="M14.7867 24.1599C14.3067 24.1599 13.8533 24.0399 13.44 23.8133C12.5333 23.2799 12 22.2133 12 20.8666V17.6666C12 16.3199 12.5333 15.2399 13.4533 14.7066C14.3733 14.1733 15.5733 14.2533 16.7333 14.9333L19.5067 16.5333C20.6667 17.1999 21.3467 18.1999 21.3467 19.2666C21.3467 20.3333 20.6667 21.3333 19.4933 21.9999L16.72 23.5999C16.08 23.9733 15.4133 24.1599 14.7867 24.1599ZM14.8 16.3599C14.6667 16.3599 14.5467 16.3866 14.4533 16.4399C14.1733 16.5999 14 17.0533 14 17.6666V20.8666C14 21.4666 14.1733 21.9199 14.4533 22.0933C14.7333 22.2533 15.2133 22.1733 15.7333 21.8666L18.5067 20.2666C19.0267 19.9599 19.3467 19.5866 19.3467 19.2666C19.3467 18.9466 19.04 18.5733 18.5067 18.2666L15.7333 16.6666C15.3867 16.4666 15.0533 16.3599 14.8 16.3599Z" fill="#5D5FEF"/>
</svg>
